<mxfile host="app.diagrams.net" agent="Mozilla/5.0 (Windows NT 10.0; Win64; x64; rv:130.0) Gecko/20100101 Firefox/130.0" version="24.7.16">
  <diagram name="PÃ¡gina-1" id="ftmwbG45EjAzrsjy41lr">
    <mxGraphModel dx="1195" dy="652" grid="1" gridSize="10" guides="1" tooltips="1" connect="1" arrows="1" fold="1" page="1" pageScale="1" pageWidth="827" pageHeight="1169" math="0" shadow="0">
      <root>
        <mxCell id="0" />
        <mxCell id="1" parent="0" />
        <mxCell id="ZAcbKE_0HHmjDjVB6bRR-1" value="Inicio" style="strokeWidth=2;html=1;shape=mxgraph.flowchart.terminator;whiteSpace=wrap;" vertex="1" parent="1">
          <mxGeometry x="346" y="120" width="136" height="60" as="geometry" />
        </mxCell>
        <mxCell id="ZAcbKE_0HHmjDjVB6bRR-2" value="n" style="shape=parallelogram;html=1;strokeWidth=2;perimeter=parallelogramPerimeter;whiteSpace=wrap;rounded=1;arcSize=12;size=0.23;" vertex="1" parent="1">
          <mxGeometry x="346" y="240" width="136" height="50" as="geometry" />
        </mxCell>
        <mxCell id="ZAcbKE_0HHmjDjVB6bRR-3" value="" style="verticalLabelPosition=bottom;verticalAlign=top;html=1;shape=hexagon;perimeter=hexagonPerimeter2;arcSize=6;size=0.27;" vertex="1" parent="1">
          <mxGeometry x="364" y="360" width="100" height="60" as="geometry" />
        </mxCell>
        <mxCell id="ZAcbKE_0HHmjDjVB6bRR-4" value="i=1; i=n; i++" style="text;html=1;align=center;verticalAlign=middle;resizable=0;points=[];autosize=1;strokeColor=none;fillColor=none;" vertex="1" parent="1">
          <mxGeometry x="369" y="375" width="90" height="30" as="geometry" />
        </mxCell>
        <mxCell id="ZAcbKE_0HHmjDjVB6bRR-9" style="edgeStyle=orthogonalEdgeStyle;rounded=0;orthogonalLoop=1;jettySize=auto;html=1;entryX=0.5;entryY=0;entryDx=0;entryDy=0;exitX=1;exitY=0.5;exitDx=0;exitDy=0;exitPerimeter=0;" edge="1" parent="1" source="ZAcbKE_0HHmjDjVB6bRR-6" target="ZAcbKE_0HHmjDjVB6bRR-7">
          <mxGeometry relative="1" as="geometry" />
        </mxCell>
        <mxCell id="ZAcbKE_0HHmjDjVB6bRR-12" style="edgeStyle=orthogonalEdgeStyle;rounded=0;orthogonalLoop=1;jettySize=auto;html=1;exitX=0;exitY=0.5;exitDx=0;exitDy=0;exitPerimeter=0;" edge="1" parent="1" source="ZAcbKE_0HHmjDjVB6bRR-6">
          <mxGeometry relative="1" as="geometry">
            <mxPoint x="414" y="640" as="targetPoint" />
            <Array as="points">
              <mxPoint x="310" y="485" />
              <mxPoint x="310" y="600" />
              <mxPoint x="415" y="600" />
              <mxPoint x="415" y="630" />
              <mxPoint x="414" y="630" />
            </Array>
          </mxGeometry>
        </mxCell>
        <mxCell id="ZAcbKE_0HHmjDjVB6bRR-6" value="n%1==0" style="strokeWidth=2;html=1;shape=mxgraph.flowchart.decision;whiteSpace=wrap;" vertex="1" parent="1">
          <mxGeometry x="376" y="450" width="76" height="70" as="geometry" />
        </mxCell>
        <mxCell id="ZAcbKE_0HHmjDjVB6bRR-7" value="divisores=divisores+1" style="rounded=1;whiteSpace=wrap;html=1;absoluteArcSize=1;arcSize=14;strokeWidth=2;" vertex="1" parent="1">
          <mxGeometry x="440" y="540" width="128" height="20" as="geometry" />
        </mxCell>
        <mxCell id="ZAcbKE_0HHmjDjVB6bRR-10" value="divisores&amp;gt;2" style="strokeWidth=2;html=1;shape=mxgraph.flowchart.decision;whiteSpace=wrap;" vertex="1" parent="1">
          <mxGeometry x="376" y="640" width="76" height="70" as="geometry" />
        </mxCell>
        <mxCell id="ZAcbKE_0HHmjDjVB6bRR-11" style="edgeStyle=orthogonalEdgeStyle;rounded=0;orthogonalLoop=1;jettySize=auto;html=1;entryX=0.5;entryY=0;entryDx=0;entryDy=0;entryPerimeter=0;" edge="1" parent="1" source="ZAcbKE_0HHmjDjVB6bRR-7" target="ZAcbKE_0HHmjDjVB6bRR-10">
          <mxGeometry relative="1" as="geometry" />
        </mxCell>
        <mxCell id="ZAcbKE_0HHmjDjVB6bRR-13" style="edgeStyle=orthogonalEdgeStyle;rounded=0;orthogonalLoop=1;jettySize=auto;html=1;entryX=0.5;entryY=0;entryDx=0;entryDy=0;entryPerimeter=0;" edge="1" parent="1" source="ZAcbKE_0HHmjDjVB6bRR-4" target="ZAcbKE_0HHmjDjVB6bRR-6">
          <mxGeometry relative="1" as="geometry" />
        </mxCell>
        <mxCell id="ZAcbKE_0HHmjDjVB6bRR-16" value="" style="endArrow=none;html=1;rounded=0;" edge="1" parent="1">
          <mxGeometry width="50" height="50" relative="1" as="geometry">
            <mxPoint x="410" y="620" as="sourcePoint" />
            <mxPoint x="420" y="610" as="targetPoint" />
            <Array as="points">
              <mxPoint x="420" y="610" />
            </Array>
          </mxGeometry>
        </mxCell>
        <mxCell id="ZAcbKE_0HHmjDjVB6bRR-18" value="" style="endArrow=none;html=1;rounded=0;" edge="1" parent="1">
          <mxGeometry width="50" height="50" relative="1" as="geometry">
            <mxPoint x="270" y="615" as="sourcePoint" />
            <mxPoint x="414" y="616" as="targetPoint" />
          </mxGeometry>
        </mxCell>
        <mxCell id="ZAcbKE_0HHmjDjVB6bRR-19" value="" style="endArrow=none;html=1;rounded=0;" edge="1" parent="1">
          <mxGeometry width="50" height="50" relative="1" as="geometry">
            <mxPoint x="270" y="615" as="sourcePoint" />
            <mxPoint x="270" y="390" as="targetPoint" />
          </mxGeometry>
        </mxCell>
        <mxCell id="ZAcbKE_0HHmjDjVB6bRR-20" value="" style="endArrow=classic;html=1;rounded=0;entryX=0;entryY=0.5;entryDx=0;entryDy=0;" edge="1" parent="1" target="ZAcbKE_0HHmjDjVB6bRR-3">
          <mxGeometry width="50" height="50" relative="1" as="geometry">
            <mxPoint x="270" y="390" as="sourcePoint" />
            <mxPoint x="350" y="400" as="targetPoint" />
          </mxGeometry>
        </mxCell>
        <mxCell id="ZAcbKE_0HHmjDjVB6bRR-21" value="F" style="text;html=1;align=center;verticalAlign=middle;resizable=0;points=[];autosize=1;strokeColor=none;fillColor=none;" vertex="1" parent="1">
          <mxGeometry x="300" y="460" width="30" height="30" as="geometry" />
        </mxCell>
        <mxCell id="ZAcbKE_0HHmjDjVB6bRR-22" value="V" style="text;html=1;align=center;verticalAlign=middle;resizable=0;points=[];autosize=1;strokeColor=none;fillColor=none;" vertex="1" parent="1">
          <mxGeometry x="482" y="460" width="30" height="30" as="geometry" />
        </mxCell>
      </root>
    </mxGraphModel>
  </diagram>
</mxfile>
